<svg width="100%" height="100%" viewBox="0 0 400 400" preserveAspectRatio="none" xmlns="http://www.w3.org/2000/svg">
  <path d="
    M0,10
    Q10,0 20,10
    Q30,20 40,10
    Q50,0 60,10
    Q70,20 80,10
    Q90,0 100,10
    Q110,20 120,10
    Q130,0 140,10
    Q150,20 160,10
    Q170,0 180,10
    Q190,20 200,10
    Q210,0 220,10
    Q230,20 240,10
    Q250,0 260,10
    Q270,20 280,10
    Q290,0 300,10
    Q310,20 320,10
    Q330,0 340,10
    Q350,20 360,10
    Q370,0 380,10
    Q390,20 400,10
    L400,390
    Q390,400 380,390
    Q370,380 360,390
    Q350,400 340,390
    Q330,380 320,390
    Q310,400 300,390
    Q290,380 280,390
    Q270,400 260,390
    Q250,380 240,390
    Q230,400 220,390
    Q210,380 200,390
    Q190,400 180,390
    Q170,380 160,390
    Q150,400 140,390
    Q130,380 120,390
    Q110,400 100,390
    Q90,380 80,390
    Q70,400 60,390
    Q50,380 40,390
    Q30,400 20,390
    Q10,380 0,390
    Z" fill="black"/>
</svg>
